<?xml version="1.0" encoding="UTF-8"?>
<svg width="20px" height="12px" viewBox="0 0 20 12" version="1.1" xmlns="http://www.w3.org/2000/svg" xmlns:xlink="http://www.w3.org/1999/xlink">
    <!-- Generator: Sketch 48.2 (47327) - http://www.bohemiancoding.com/sketch -->
    <title>Page 1@2x</title>
    <desc>Created with Sketch.</desc>
    <defs>
        <path d="M3.624,0.365 L0.419,3.035 C0.296,3.137 0.228,3.288 0.228,3.446 C0.228,3.604 0.298,3.754 0.419,3.856 L3.624,6.526 C3.723,6.61 3.845,6.65 3.965,6.65 C4.118,6.65 4.271,6.585 4.376,6.46 C4.565,6.233 4.537,5.896 4.308,5.707 L1.598,3.447 L4.308,1.187 C4.534,0.998 4.565,0.66 4.376,0.433 C4.27,0.307 4.118,0.242 3.965,0.242 C3.845,0.242 3.724,0.282 3.624,0.365 Z" id="path-1"></path>
        <path d="M0.761,0.912 C0.468,0.912 0.228,1.151 0.228,1.446 C0.228,1.741 0.468,1.98 0.761,1.98 L8.284,1.98 C9.436,1.98 10.374,2.918 10.374,4.071 C10.374,5.225 9.436,6.163 8.284,6.163 C7.988,6.163 7.749,6.403 7.749,6.697 C7.749,6.99 7.988,7.231 8.284,7.231 C10.025,7.231 11.443,5.813 11.443,4.071 C11.443,2.329 10.025,0.912 8.284,0.912 L0.761,0.912 Z" id="path-3"></path>
        <path d="M0.285,0.772 C0.096,1 0.122,1.336 0.351,1.525 L3.06,3.785 L0.35,6.046 C0.125,6.235 0.094,6.571 0.283,6.798 C0.389,6.925 0.54,6.991 0.693,6.991 C0.814,6.991 0.936,6.951 1.036,6.865 L4.241,4.195 C4.364,4.093 4.433,3.944 4.433,3.784 C4.433,3.625 4.361,3.476 4.241,3.374 L1.036,0.704 C0.937,0.621 0.816,0.581 0.696,0.581 C0.543,0.581 0.391,0.646 0.285,0.772 Z" id="path-5"></path>
        <path d="M0.616,4.116 C0.616,5.823 2.154,7.321 3.91,7.321 L10.898,7.321 C11.191,7.321 11.432,7.081 11.432,6.786 C11.432,6.493 11.191,6.253 10.898,6.253 L3.91,6.253 C2.726,6.253 1.685,5.253 1.685,4.116 C1.685,2.918 2.545,1.98 3.643,1.98 C3.937,1.98 4.177,1.741 4.177,1.446 C4.177,1.151 3.937,0.912 3.643,0.912 C1.946,0.912 0.616,2.32 0.616,4.116 Z" id="path-7"></path>
    </defs>
    <g id="Tablet-9″" stroke="none" stroke-width="1" fill="none" fill-rule="evenodd" transform="translate(-374.000000, -494.000000)">
        <g id="Page-1" transform="translate(374.000000, 493.000000)">
            <g id="Group-3" transform="translate(8.000000, 0.767700)">
                <mask id="mask-2" fill="white">
                    <use xlink:href="#path-1"></use>
                </mask>
                <g id="Clip-2"></g>
                <polygon id="Fill-1" fill="#0B1116" mask="url(#mask-2)" points="-1.108 7.985 5.836 7.985 5.836 -1.094 -1.108 -1.094"></polygon>
            </g>
            <g id="Group-6" transform="translate(8.000000, 2.767700)">
                <mask id="mask-4" fill="white">
                    <use xlink:href="#path-3"></use>
                </mask>
                <g id="Clip-5"></g>
                <polygon id="Fill-4" fill="#0B1116" mask="url(#mask-4)" points="-1.108 8.566 12.778 8.566 12.778 -0.424 -1.108 -0.424"></polygon>
            </g>
            <g id="Group-9" transform="translate(7.000000, 5.767700)">
                <mask id="mask-6" fill="white">
                    <use xlink:href="#path-5"></use>
                </mask>
                <g id="Clip-8"></g>
                <polygon id="Fill-7" fill="#0B1116" mask="url(#mask-6)" points="-1.176 8.326 5.768 8.326 5.768 -0.754 -1.176 -0.754"></polygon>
            </g>
            <g id="Group-12" transform="translate(0.000000, 2.767700)">
                <mask id="mask-8" fill="white">
                    <use xlink:href="#path-7"></use>
                </mask>
                <g id="Clip-11"></g>
                <polygon id="Fill-10" fill="#0B1116" mask="url(#mask-8)" points="-0.718 8.656 12.767 8.656 12.767 -0.423 -0.718 -0.423"></polygon>
            </g>
        </g>
    </g>
</svg>